<svg xmlns="http://www.w3.org/2000/svg" x="0px" y="0px"
width="30" height="30"
viewBox="0 0 226 226"
style=" fill:#000000;"><g fill="none" fill-rule="nonzero" stroke="none" stroke-width="1" stroke-linecap="butt" stroke-linejoin="miter" stroke-miterlimit="10" stroke-dasharray="" stroke-dashoffset="0" font-family="none" font-weight="none" font-size="none" text-anchor="none" style="mix-blend-mode: normal"><path d="M0,226v-226h226v226z" fill="none"></path><g fill="#6b9788"><path d="M136.23563,9.04c-14.78153,0 -27.55042,4.50616 -36.51312,13.40992c-8.9627,8.90376 -13.8425,21.95377 -13.8425,37.96977v20.94031h-27.12c-2.49622,0.00025 -4.51975,2.02378 -4.52,4.52v36.16c0.00025,2.49622 2.02378,4.51975 4.52,4.52h27.12v85.88c0.00025,2.49622 2.02378,4.51975 4.52,4.52h36.16c2.49622,-0.00025 4.51975,-2.02378 4.52,-4.52v-85.88h31.64c2.27784,-0.00013 4.19976,-1.69505 4.48469,-3.955l4.52,-36.16c0.16201,-1.28706 -0.23672,-2.5817 -1.09477,-3.5546c-0.85804,-0.9729 -2.0927,-1.53029 -3.38992,-1.5304h-36.16v-18.08c0,-5.04733 3.99267,-9.04 9.04,-9.04h27.12c2.49622,-0.00025 4.51975,-2.02378 4.52,-4.52v-34.59742c-0.00284,-2.26562 -1.68241,-4.17919 -3.92852,-4.47586c-3.99421,-0.52996 -18.41306,-1.60672 -31.59586,-1.60672zM136.23563,18.08c11.01909,0 21.67105,0.88161 26.48437,1.33305v25.78695h-22.6c-9.93195,0 -18.08,8.14805 -18.08,18.08v22.6c0.00025,2.49622 2.02378,4.51975 4.52,4.52h35.55969l-3.39,27.12h-32.16969c-2.49622,0.00025 -4.51975,2.02378 -4.52,4.52v85.88h-27.12v-85.88c-0.00025,-2.49622 -2.02378,-4.51975 -4.52,-4.52h-27.12v-27.12h27.12c2.49622,-0.00025 4.51975,-2.02378 4.52,-4.52v-25.46031c0,-14.21376 4.15978,-24.59007 11.17641,-31.56055c7.01663,-6.97048 17.16343,-10.77914 30.13922,-10.77914z"></path></g></g></svg>