<svg xmlns="http://www.w3.org/2000/svg" x="0px" y="0px"
width="30" height="30"
viewBox="0 0 226 226"
style=" fill:#000000;"><g fill="none" fill-rule="nonzero" stroke="none" stroke-width="1" stroke-linecap="butt" stroke-linejoin="miter" stroke-miterlimit="10" stroke-dasharray="" stroke-dashoffset="0" font-family="none" font-weight="none" font-size="none" text-anchor="none" style="mix-blend-mode: normal"><path d="M0,226v-226h226v226z" fill="none"></path><g fill="#6b9788"><path d="M113,9.04c-57.15746,0 -103.96,46.80254 -103.96,103.96c0,57.15746 46.80254,103.96 103.96,103.96c57.15746,0 103.96,-46.80254 103.96,-103.96c0,-57.15746 -46.80254,-103.96 -103.96,-103.96zM113,18.08c52.22654,0 94.92,42.69346 94.92,94.92c0,0.4236 -0.02971,0.8401 -0.03531,1.26242c-2.87718,-0.29707 -6.20478,-0.57562 -10.43484,-0.75039c-6.03118,-0.24918 -13.631,-0.19349 -22.22039,0.25602c0.33784,-2.28087 0.56765,-4.59657 0.57383,-6.97422c0.43767,-8.46425 -2.40469,-16.38269 -7.02719,-23.37687c1.11675,-3.85884 2.4268,-8.76817 2.75437,-14.33688c0.37335,-6.34734 -0.17456,-13.3857 -5.27039,-18.1418l-1.30656,-1.21828h-1.78328c-12.12748,0 -20.42853,5.07691 -25.50445,9.1018c-7.32919,-2.83698 -15.57055,-4.5818 -24.66578,-4.5818c-9.14682,0 -17.46743,1.7692 -25.09836,4.59945c-5.07304,-4.02681 -13.38137,-9.11945 -25.52211,-9.11945h-1.77445l-1.30656,1.20945c-4.9638,4.60924 -5.42112,11.4545 -5.11149,17.77102c0.27305,5.56994 1.5072,10.63521 2.6043,14.68117c-4.70064,7.13072 -7.52156,15.25388 -7.52156,23.28859c0,2.26659 0.20977,4.47701 0.51203,6.65641c-14.12141,-0.4578 -24.83702,-0.08568 -31.68414,0.53851c-0.00263,-0.28965 -0.01766,-0.57491 -0.01766,-0.86516c0,-52.22654 42.69346,-94.92 94.92,-94.92zM65.07211,59.35148c9.11948,0.86415 15.98051,4.93635 19.15703,7.75992l2.11875,1.87156l2.61312,-1.0682c7.14816,-2.94336 15.12095,-4.63477 24.03898,-4.63477c8.91803,0 16.89302,1.69986 23.50047,4.59062l2.64844,1.16531l2.16289,-1.92453c3.17761,-2.82454 10.05027,-6.89798 19.17469,-7.75992c1.21315,2.01132 2.26735,4.8717 2.01281,9.19891c-0.30465,5.17866 -1.68988,10.81926 -2.73672,14.16914l-0.67977,2.18055l1.35071,1.84508c4.47243,6.09877 6.75279,12.69908 6.36508,19.67789l-0.00883,0.12359v0.12359c0,11.27946 -4.06172,20.30714 -12.7125,26.99641c-8.65057,6.6893 -22.30723,10.97336 -41.5275,10.97336c-19.22027,0 -32.88555,-4.28409 -41.53633,-10.97336c-8.65079,-6.68927 -12.70367,-15.71695 -12.70367,-26.99641c0,-6.62047 2.3907,-13.90357 6.80648,-19.92508l1.32422,-1.80094l-0.63563,-2.14524c-1.04741,-3.56119 -2.33128,-9.33044 -2.58664,-14.53992c-0.21239,-4.33297 0.81312,-7.0717 1.85391,-8.90758zM40.16797,117.60828c3.18299,0.02036 6.82983,0.1465 10.47016,0.27367c0.35428,1.44445 0.77496,2.86023 1.27125,4.24633c-14.97671,0.32547 -26.1255,1.87546 -32.99953,3.20461c-0.30037,-2.28991 -0.52957,-4.60195 -0.66211,-6.93891c5.05083,-0.46778 12.26325,-0.84746 21.92023,-0.7857zM185.83203,117.8643c9.62563,-0.11196 16.82129,0.39759 21.89375,0.93578c-0.13272,2.17476 -0.34855,4.32839 -0.6268,6.46219c-7.10902,-1.35316 -18.53719,-2.89986 -33.91766,-3.15164c0.44026,-1.23521 0.80222,-2.50551 1.13,-3.78727c4.05996,-0.23143 8.01807,-0.41832 11.5207,-0.45906zM171.27445,126.59531c16.15029,0.1445 27.99118,1.75879 35.13594,3.12516c-6.05988,33.75567 -30.09261,61.44275 -61.77039,72.72609v-23.45633c0,-7.16225 -2.35202,-15.06017 -6.44453,-21.64656c-1.24253,-1.9997 -2.7042,-3.89087 -4.33461,-5.5882c10.46479,-2.06735 19.06143,-5.7648 25.75164,-10.93805c5.10968,-3.95109 8.96999,-8.7934 11.66195,-14.22211zM53.82508,126.6218c2.69777,5.41655 6.56007,10.25056 11.66195,14.19562c6.96326,5.38438 16.01591,9.14641 27.06703,11.15875c-1.44578,1.4855 -2.76073,3.11676 -3.92851,4.83781l-0.27367,-0.23836c0.02486,-0.02848 -2.24701,1.10854 -5.64117,1.4125c-3.39417,0.30397 -7.581,0.21187 -11.29117,0.21187c-5.537,0 -7.97586,-2.61613 -11.87383,-7.38031c-2.1585,-2.9092 -4.78997,-5.26515 -7.345,-7.05367c-2.61621,-1.83135 -4.84801,-3.12392 -7.60984,-3.58422l-0.37078,-0.0618h-0.37961c-2.10933,0 -4.15042,0.15273 -6.05609,2.33062c-0.95284,1.08895 -1.60956,3.10495 -1.18297,4.81133c0.42659,1.70638 1.50606,2.75495 2.47188,3.39883c6.17759,4.11839 7.26935,12.26945 11.14109,19.51899c3.61565,7.20454 11.41882,10.62023 19.39539,10.62023h11.75023v21.64656c-31.65277,-11.27444 -55.66927,-38.92717 -61.75273,-72.64664c6.89588,-1.34421 18.42777,-2.95132 34.21781,-3.17813zM107.12047,154.13023h12.65953c3.67395,0 7.59551,2.92802 10.735,7.98063c3.13949,5.05261 5.085,11.83762 5.085,16.87938v26.17539c-7.24985,1.78654 -14.81698,2.75438 -22.6,2.75438c-7.78302,0 -15.35015,-0.96783 -22.6,-2.75438v-26.17539c0,-4.93014 2.11458,-11.69913 5.46461,-16.77344c3.35003,-5.07431 7.58191,-8.08656 11.25586,-8.08656zM55.63484,159.47125c3.9133,4.059 8.65097,7.76875 15.78469,7.76875c3.52183,0 7.9177,0.12689 12.09453,-0.24719c0.01485,-0.00133 0.02929,-0.00749 0.04414,-0.00883c-0.5503,1.58201 -0.96088,3.17381 -1.30656,4.77602h-12.64187c-5.57467,0 -9.51289,-2.01398 -11.32649,-5.64117l-0.03531,-0.0618l-0.02649,-0.05297c-0.7431,-1.38028 -1.71857,-4.14019 -2.58664,-6.53281z"></path></g></g></svg>